<svg xmlns="http://www.w3.org/2000/svg" width="586.479" height="659.297" viewBox="0 0 586.479 659.297">
  <g id="Group_142" data-name="Group 142" transform="translate(0)">
    <circle id="Ellipse_11" data-name="Ellipse 11" cx="254" cy="254" r="254" transform="translate(78.479)" fill="#f2f2f2"/>
    <path id="Path_44" data-name="Path 44" d="M498.464,113.588H33.171a1.807,1.807,0,0,1,0-3.613H498.464a1.807,1.807,0,0,1,0,3.613Z" fill="#cacaca"/>
    <rect id="Rectangle_53" data-name="Rectangle 53" width="163.611" height="34.986" rx="17.493" transform="translate(193.774 174.473)" fill="#fff"/>
    <path id="Path_45" data-name="Path 45" d="M128.175,244.445h294.81a17.493,17.493,0,0,1,17.493,17.493h0a17.493,17.493,0,0,1-17.493,17.493H128.175a17.493,17.493,0,0,1-17.493-17.493h0A17.493,17.493,0,0,1,128.175,244.445Z" fill="#fff"/>
    <path id="Path_46" data-name="Path 46" d="M128.175,314.418h294.81a17.493,17.493,0,0,1,17.493,17.493h0A17.493,17.493,0,0,1,422.985,349.4H128.175a17.493,17.493,0,0,1-17.493-17.493h0A17.493,17.493,0,0,1,128.175,314.418Z" fill="#fff"/>
    <path id="Path_47" data-name="Path 47" d="M91.641,657.759l-.694-.068a80.528,80.528,0,0,1-58.188-34.618,78.131,78.131,0,0,1-8.815-17.5l-.211-.59.624-.05c7.447-.6,15.1-1.863,18.5-2.464l-21.915-7.425-.135-.65a15.273,15.273,0,0,1,6.428-15.862,15.534,15.534,0,0,1,17.4-.294c2.386,1.524,4.882,3.033,7.295,4.494,8.293,5.016,16.869,10.2,23.3,17.3a48.675,48.675,0,0,1,11.63,40.256l4.783,17.476Z" fill="#f2f2f2"/>
    <path id="Path_48" data-name="Path 48" d="M171.3,646.861h10.8l5.139-41.662H171.3Z" fill="#a0616a"/>
    <path id="Path_49" data-name="Path 49" d="M170.919,658.128h33.214v-.42a12.929,12.929,0,0,0-12.928-12.928h0l-6.067-4.6-11.32,4.6h-2.9v13.348Z" fill="#2f2e41"/>
    <path id="Path_50" data-name="Path 50" d="M84.741,616.945l8.639,6.481,29.113-30.241-12.752-9.566Z" fill="#a0616a"/>
    <path id="Path_51" data-name="Path 51" d="M77.674,625.73l26.569,19.932.252-.336a12.929,12.929,0,0,0-2.583-18.1h0L99.821,619.9,88,616.792l-2.319-1.74-8.01,10.678Z" fill="#2f2e41"/>
    <path id="Path_52" data-name="Path 52" d="M120.645,451.353s.6,16.264,1.348,29.307c.123,2.139-4.888,4.463-4.758,6.79.086,1.544,1.028,3.045,1.116,4.655.092,1.7-1.208,3.2-1.116,4.96.091,1.717,1.574,3.685,1.664,5.442.963,18.909,4.455,41.546.958,47.874-1.723,3.119-23.685,46.325-23.685,46.325s12.237,18.355,15.733,12.237c4.618-8.081,40.206-45.888,40.206-53.107s8.233-61.253,8.233-61.253l5.741,31.982,2.632,6.337-.827,3.72,1.7,5.02.092,4.968,1.656,9.226s-4.982,71.882-2.176,73.883,16.441,5.62,18.049,2.01,12.011-75.02,12.011-75.02,1.678-32.724,3.5-63.141c.1-1.766,1.346-3.9,1.442-5.638.114-2.019-.673-4.641-.568-6.6.114-2.246,1.11-3.828,1.206-5.979.743-16.616-3.428-36.849-4.756-38.842-4.012-6.013-7.622-10.821-7.622-10.821s-54.036-17.754-68.475.286l-3.3,25.376Z" fill="#2f2e41"/>
    <path id="Path_53" data-name="Path 53" d="M174.538,284.1l-21.421-4.284-10,13.567h0c-18.653,18.341-18.934,34.527-15.6,60.474v36.415l-2.41,24.412s-8.532,17.845.268,22,66.6,3.8,72.117,2.142.735-3.695-.714-11.424c-2.722-14.519-.9-7.516-.714-12.138,2.686-66.314-3.57-93.538-4.205-100.694l-10.894-19.759-6.426-10.71Z" fill="#3f3d56"/>
    <path id="Path_54" data-name="Path 54" d="M287.439,337.571a8.66,8.66,0,0,1-12.984,2.788l-46.26,29.373.133-15.992,44.938-26.078a8.707,8.707,0,0,1,14.172,9.91Z" fill="#a0616a"/>
    <path id="Path_55" data-name="Path 55" d="M157.625,302.624l-5.267-.558a13.936,13.936,0,0,0-12.579,5.491,13.58,13.58,0,0,0-2.375,4.992l0,.014a13.923,13.923,0,0,0,5.258,14.481l18.19,13.411c12.765,17.249,36.757,28.693,64.9,37.99l43.743-27.167L254.018,332.54l-30,16.08-44.6-34.524-.026-.021-16.974-10.936-4.792-.515Z" fill="#3f3d56"/>
    <circle id="Ellipse_12" data-name="Ellipse 12" cx="24.98" cy="24.98" r="24.98" transform="translate(142.32 223.625)" fill="#a0616a"/>
    <path id="Path_56" data-name="Path 56" d="M167.877,273.59c-.2.007-.4.011-.6.017-.086.224-.179.446-.287.664Z" fill="#2f2e41"/>
    <path id="Path_57" data-name="Path 57" d="M174.732,249.3a4.422,4.422,0,0,0,.179.724A3.409,3.409,0,0,0,174.732,249.3Z" fill="#2f2e41"/>
    <path id="Path_58" data-name="Path 58" d="M192.6,224.694c-1.028,3.193-1.946-.857-5.328-.129-4.069.876-8.8.575-12.136-1.919a18.8,18.8,0,0,0-17.223-2.625c-5.7,2.017-15.253,3.439-16.739,9.3-.516,2.038-.721,4.249-1.973,5.938-1.094,1.477-2.822,2.319-4.266,3.455-4.877,3.837-1.15,14.74,1.159,20.5s7.6,9.957,13.425,12.107c5.633,2.08,11.746,2.447,17.755,2.283,1.045-2.711.594-5.841-.269-8.651-.934-3.042-2.316-5.978-2.706-9.136s.466-6.745,3.114-8.51c2.434-1.622,6.395-.634,7.321,1.988-.54-3.278,2.781-6.451,6.205-7.009,3.677-.6,7.353.728,11.019,1.389s2.365-14.773.642-18.984Z" fill="#2f2e41"/>
    <circle id="Ellipse_13" data-name="Ellipse 13" cx="51.12" cy="51.12" r="51.12" transform="translate(226.196 332.441) rotate(-85.269)" fill="#fc5d5d"/>
    <path id="Path_59" data-name="Path 59" d="M294.787,264.411l-13.428,13.428L267.93,264.411a5.566,5.566,0,1,0-7.872,7.872l13.428,13.428-13.428,13.428a5.566,5.566,0,0,0,7.872,7.872l13.428-13.428,13.428,13.428a5.566,5.566,0,0,0,7.872-7.872L289.23,285.711l13.428-13.428a5.566,5.566,0,0,0-7.872-7.872Z" fill="#fff"/>
    <path id="Path_60" data-name="Path 60" d="M261.214,242.744a8.66,8.66,0,0,1-6.977,11.3L243.407,307.76l-11.448-11.168,12.293-50.482a8.707,8.707,0,0,1,16.963-3.366Z" fill="#a0616a"/>
    <path id="Path_61" data-name="Path 61" d="M146.125,312.225l-4.049,3.414a13.936,13.936,0,0,0-4.746,12.879,13.58,13.58,0,0,0,1.958,5.169l.008.012a13.923,13.923,0,0,0,14.09,6.231l22.271-3.842c21.285,2.73,46.152-6.66,72.343-20.531l10.68-50.373-24.233-1.808-9.168,32.783-55.788,8.281-.033,0-19.643,4.678-3.689,3.1Z" fill="#3f3d56"/>
    <path id="Path_62" data-name="Path 62" d="M272.937,658.99,1.187,659.3a1.191,1.191,0,0,1,0-2.381l271.75-.307a1.191,1.191,0,0,1,0,2.381Z" fill="#cacaca"/>
    <g id="Group_141" data-name="Group 141">
      <ellipse id="Ellipse_14" data-name="Ellipse 14" cx="8.457" cy="8.645" rx="8.457" ry="8.645" transform="translate(48.32 73.413)" fill="#3f3d56"/>
      <ellipse id="Ellipse_15" data-name="Ellipse 15" cx="8.457" cy="8.645" rx="8.457" ry="8.645" transform="translate(77.534 73.413)" fill="#3f3d56"/>
      <ellipse id="Ellipse_16" data-name="Ellipse 16" cx="8.457" cy="8.645" rx="8.457" ry="8.645" transform="translate(106.747 73.413)" fill="#3f3d56"/>
      <path id="Path_63" data-name="Path 63" d="M148.516,88.891a1,1,0,0,1-.715-.3L142.1,82.757a1,1,0,0,1,0-1.4l5.706-5.833a1,1,0,0,1,1.43,1.4l-5.022,5.133,5.022,5.134a1,1,0,0,1-.715,1.7Z" fill="#3f3d56"/>
      <path id="Path_64" data-name="Path 64" d="M158.1,88.891a1,1,0,0,1-.715-1.7l5.021-5.134-5.021-5.133a1,1,0,0,1,1.43-1.4l5.706,5.833a1,1,0,0,1,0,1.4l-5.706,5.833a1,1,0,0,1-.715.3Z" fill="#3f3d56"/>
      <path id="Path_65" data-name="Path 65" d="M456.614,74.414H446a2.189,2.189,0,0,0-2.19,2.19v10.62a2.189,2.189,0,0,0,2.19,2.19h10.61a2.2,2.2,0,0,0,2.2-2.19V76.6A2.2,2.2,0,0,0,456.614,74.414Z" fill="#3f3d56"/>
      <path id="Path_66" data-name="Path 66" d="M430.614,74.414H420a2.189,2.189,0,0,0-2.19,2.19v10.62a2.189,2.189,0,0,0,2.19,2.19h10.61a2.2,2.2,0,0,0,2.2-2.19V76.6A2.2,2.2,0,0,0,430.614,74.414Z" fill="#3f3d56"/>
      <path id="Path_67" data-name="Path 67" d="M481.114,74.914H470.5a2.189,2.189,0,0,0-2.19,2.19v10.62a2.189,2.189,0,0,0,2.19,2.19h10.61a2.2,2.2,0,0,0,2.2-2.19V77.1A2.2,2.2,0,0,0,481.114,74.914Z" fill="#3f3d56"/>
      <path id="Path_68" data-name="Path 68" d="M321.192,78.954h-84.81a2.67,2.67,0,1,0,0,5.34h84.81a2.67,2.67,0,0,0,0-5.34Z" fill="#3f3d56"/>
    </g>
  </g>
</svg>
