<svg xmlns="http://www.w3.org/2000/svg" width="227" height="44.667" viewBox="0 0 227 44.667">
  <path id="Icon_metro-visa" data-name="Icon metro-visa" d="M60,35.356H55.99q.407-1.076,1.919-5.205L58,29.889q.116-.291.291-.756t.262-.756l.349,1.6Zm-41.991-1.89-1.687-8.579a1.928,1.928,0,0,0-2.181-1.57H6.351l-.058.378q9.044,2.3,11.719,9.771Zm5.205-10.149L18.506,36.054l-.494-2.588A10.573,10.573,0,0,0,15.54,29.7a11.278,11.278,0,0,0-3.809-2.574l3.926,14.831h5.089l7.59-18.64H23.217Zm4.042,18.669h4.827l3.024-18.669H30.284Zm22.333-18.2A11.786,11.786,0,0,0,45.26,23a9.426,9.426,0,0,0-5.845,1.716,5.41,5.41,0,0,0-2.3,4.449q-.029,2.966,4.217,5.06a8.043,8.043,0,0,1,1.948,1.192,1.549,1.549,0,0,1,.553,1.134,1.455,1.455,0,0,1-.872,1.338,4.2,4.2,0,0,1-2.007.465,10.507,10.507,0,0,1-4.536-.96l-.64-.32-.669,4.188a12.885,12.885,0,0,0,5.38.989,9.6,9.6,0,0,0,6.063-1.716,5.718,5.718,0,0,0,2.341-4.653q0-3.082-4.071-5.06A14.053,14.053,0,0,1,42.759,29.6a1.4,1.4,0,0,1-.64-1.105,1.358,1.358,0,0,1,.712-1.12,3.663,3.663,0,0,1,2.05-.48,8.209,8.209,0,0,1,3.606.7l.436.233Zm12.359-.465H58.229a2.47,2.47,0,0,0-2.53,1.57l-7.154,17.1h5.06l1.018-2.792h6.165q.145.64.582,2.792h4.478Zm7.619-9.306V51.234a3.774,3.774,0,0,1-3.722,3.722H6.293a3.577,3.577,0,0,1-2.617-1.105,3.577,3.577,0,0,1-1.105-2.617V14.011a3.577,3.577,0,0,1,1.105-2.617,3.577,3.577,0,0,1,2.617-1.105H65.848a3.774,3.774,0,0,1,3.722,3.722Z" transform="translate(-2.571 -10.289)"/>
  <path id="Icon_awesome-cc-mastercard" data-name="Icon awesome-cc-mastercard" d="M48.146,39.938a1.118,1.118,0,1,1-1.117-1.167A1.114,1.114,0,0,1,48.146,39.938ZM17.159,38.771a1.169,1.169,0,1,0,1.087,1.167A1.1,1.1,0,0,0,17.159,38.771Zm11.715-.03a.924.924,0,0,0-.947.867h1.9A.917.917,0,0,0,28.874,38.742Zm10.748.03a1.168,1.168,0,1,0,1.117,1.167A1.1,1.1,0,0,0,39.622,38.771Zm10.558,2.6c0,.03.03.05.03.11,0,.03-.03.05-.03.11a.35.35,0,0,0-.05.08.129.129,0,0,1-.11.05c-.03.03-.05.03-.11.03a.2.2,0,0,1-.11-.03c-.03,0-.05-.03-.08-.05s-.05-.05-.05-.08a.181.181,0,0,1-.03-.11c0-.05,0-.08.03-.11a.187.187,0,0,1,.05-.11.35.35,0,0,1,.08-.05.181.181,0,0,1,.11-.03c.05,0,.08,0,.11.03.05.03.08.03.11.05S50.15,41.324,50.18,41.374Zm-.219.14c.05,0,.05-.03.08-.03a.121.121,0,0,0,0-.16c-.03,0-.05-.03-.11-.03h-.16v.349h.08V41.5h.03l.11.14h.08l-.11-.13ZM57.428,7.106V42.2a4.787,4.787,0,0,1-4.786,4.786H4.786A4.787,4.787,0,0,1,0,42.2V7.106A4.787,4.787,0,0,1,4.786,2.32H52.643A4.787,4.787,0,0,1,57.428,7.106ZM6.381,21.024A13.8,13.8,0,0,0,27.817,32.53a14.869,14.869,0,0,1,0-22.981A13.8,13.8,0,0,0,6.381,21.024ZM28.714,31.872a13.8,13.8,0,0,0,0-21.685A13.8,13.8,0,0,0,28.714,31.872ZM14.527,39.479a1.4,1.4,0,0,0-1.466-1.466,1.425,1.425,0,0,0-1.276.648,1.322,1.322,0,0,0-1.216-.648,1.266,1.266,0,0,0-1.057.538v-.439H8.694v3.659h.818c0-1.884-.249-3.011.9-3.011,1.017,0,.818,1.017.818,3.011h.788c0-1.825-.249-3.011.9-3.011,1.017,0,.818,1,.818,3.011h.818V39.479ZM19,38.113h-.788v.439a1.437,1.437,0,0,0-1.167-.538,1.928,1.928,0,0,0,0,3.849,1.382,1.382,0,0,0,1.167-.538v.459H19Zm4.038,2.552c0-1.5-2.283-.818-2.283-1.515,0-.568,1.186-.479,1.844-.11l.329-.648c-.937-.608-3.011-.6-3.011.818s2.283.828,2.283,1.5c0,.628-1.346.578-2.064.08l-.349.628C20.908,42.171,23.041,42.012,23.041,40.666Zm3.529.927-.219-.678c-.379.209-1.216.439-1.216-.409V38.851h1.306v-.738H25.135V37h-.818v1.117H23.56v.728h.758v1.665c0,1.755,1.725,1.436,2.253,1.087ZM27.9,40.257h2.742C30.638,38.642,29.9,38,28.9,38a1.8,1.8,0,0,0-1.815,1.924,1.989,1.989,0,0,0,3.37,1.416l-.379-.6c-.778.638-1.954.578-2.183-.489Zm5.892-2.144a1.17,1.17,0,0,0-1.515.439v-.439h-.818v3.659h.818V39.709a.832.832,0,0,1,1.276-.838Zm1.057,1.825c0-1.137,1.157-1.506,2.064-.838l.379-.648a1.973,1.973,0,1,0,0,2.991L36.91,40.8C35.992,41.443,34.846,41.055,34.846,39.938Zm6.65-1.825h-.818v.439c-.828-1.1-2.981-.479-2.981,1.386,0,1.914,2.233,2.463,2.981,1.386v.459H41.5Zm3.36,0a1.2,1.2,0,0,0-1.515.439v-.439h-.788v3.659h.788V39.709a.837.837,0,0,1,1.276-.838Zm4.018-1.486h-.788v1.924a1.748,1.748,0,0,0-2.981,1.386c0,1.934,2.243,2.453,2.981,1.386v.459h.788Zm.758-7.488V29.6h.08V29.14H49.9v-.08h-.459v.08h.189Zm.658,12.343a.3.3,0,0,0-.03-.16c-.03-.03-.05-.08-.08-.11s-.08-.05-.11-.08c-.05,0-.11-.03-.16-.03a1.06,1.06,0,0,1-.14.03.521.521,0,0,0-.11.08.156.156,0,0,0-.08.11.3.3,0,0,0-.03.16.29.29,0,0,0,.03.14.156.156,0,0,0,.08.11.346.346,0,0,0,.11.08.271.271,0,0,0,.14.03.3.3,0,0,0,.16-.03c.03-.03.08-.05.11-.08s.05-.08.08-.11A.29.29,0,0,0,50.29,41.483Zm.319-12.433h-.14l-.16.349-.16-.349h-.14v.538h.08V29.18l.16.349h.11l.14-.349v.409h.11Zm.439-8.026A13.8,13.8,0,0,0,29.612,9.539a14.869,14.869,0,0,1,0,22.981,13.8,13.8,0,0,0,21.436-11.5Z" transform="translate(93.286 -2.32)"/>
  <path id="Icon_awesome-paypal" data-name="Icon awesome-paypal" d="M10.154,28.319c-.319,1.891-1.586,10.706-1.96,13.2-.027.177-.091.246-.273.246H1.12a1.169,1.169,0,0,1-1.1-1.369L5.359,3.764A1.9,1.9,0,0,1,7.182,2.1c13.885,0,15.052-.364,18.6,1.123,5.479,2.295,5.981,7.83,4.011,13.819-1.96,6.166-6.61,8.815-12.772,8.894C13.062,26,10.683,25.246,10.154,28.319Zm22.4-14.173c-.164-.128-.228-.177-.273.128a24.558,24.558,0,0,1-.8,3.309C27.841,28.792,17.758,27.817,12.835,27.817a.943.943,0,0,0-.994.926C9.78,42.571,9.37,45.457,9.37,45.457a1.028,1.028,0,0,0,.966,1.271h5.789a1.679,1.679,0,0,0,1.586-1.468c.064-.532-.1.6,1.313-8.993.419-2.167,1.3-1.94,2.671-1.94,6.473,0,11.523-2.837,13.028-11.061.593-3.428.419-7.033-2.17-9.121Z" transform="translate(191.994 -2.06)"/>
</svg>
