<svg xmlns="http://www.w3.org/2000/svg" width="241.51" height="236.626" viewBox="0 0 241.51 236.626">
  <g id="Group_155" data-name="Group 155" transform="translate(-666.364 -2035.716)">
    <path id="Icon_awesome-star" data-name="Icon awesome-star" d="M86.52,6.345,63.256,53.516,11.2,61.105A11.407,11.407,0,0,0,4.9,80.558l37.658,36.7-8.907,51.838A11.394,11.394,0,0,0,50.18,181.1l46.565-24.476L143.311,181.1a11.4,11.4,0,0,0,16.531-12.007l-8.907-51.838,37.658-36.7a11.407,11.407,0,0,0-6.306-19.453l-52.052-7.589L106.971,6.345a11.411,11.411,0,0,0-20.45,0Z" transform="translate(665.01 2101.401) rotate(-20)" fill="#1f55d2"/>
    <text id="Best_Deals" data-name="Best 
Deals" transform="translate(792 2158)" fill="#f5f5f5" font-size="26" font-family="Poppins-Bold, Poppins" font-weight="700"><tspan x="-31.863" y="0">Best </tspan><tspan x="-37.375" y="30">Deals</tspan></text>
  </g>
</svg>
